<svg height="800" viewBox="0 0 512 512" width="800" xmlns="http://www.w3.org/2000/svg"><circle cx="255.722" cy="256" fill="#40a459" r="255.445"/><path d="m255.722.555c-1.944 0-3.878.03-5.812.073-.492.011-.983.022-1.474.037-1.843.051-3.682.119-5.514.209-.474.023-.945.056-1.418.081-1.394.077-2.785.165-4.174.264-.699.05-1.397.098-2.094.153-1.61.128-3.217.27-4.82.428-.829.082-1.654.173-2.479.262-.991.108-1.98.221-2.968.34-.856.103-1.714.202-2.567.313 125.334 16.327 222.126 123.498 222.126 253.282s-96.791 236.956-222.125 253.283c.854.111 1.71.211 2.567.313.987.119 1.977.232 2.968.34.826.09 1.652.181 2.479.262 1.603.158 3.209.3 4.82.428.696.056 1.395.104 2.094.153 1.388.099 2.779.188 4.174.264.473.027.945.058 1.418.081 1.833.09 3.672.158 5.514.209.491.014.982.026 1.474.037 1.932.043 3.868.073 5.812.073 141.079 0 255.445-114.367 255.445-255.445s-114.367-255.44-255.446-255.44z" fill="#378b4e"/><path d="m222.403 233.787 106.563-61.152s116.569 24.829 143.473-24.263l8.485-15.483 7.379 16.04c15.321 33.304 23.42 70.329 23.42 107.071 0 84.691-41.95 163.833-112.217 211.703l-7.25 4.94z" fill="#898790"/><path d="m511.166 256c0-44.143-11.198-85.671-30.908-121.898l-7.82 14.269c-9.45 17.245-21.888 34.878-34.284 50.741 4.162 18.295 6.374 37.333 6.374 56.888 0 71.337-29.248 135.834-76.4 182.176l23.852 34.666c71.659-45.244 119.186-125.83 119.186-216.842z" fill="#7a797f"/><path d="m255.722 512c-87.455 0-168.01-44.081-215.484-117.917l-4.527-7.04 142.267-119.937 163.74 230.122-10.434 3.385c-24.41 7.556-49.832 11.387-75.562 11.387z" fill="#3d9ae3"/><path d="m342.752 496.827-17.317-24.795c-30.569 19.333-65.625 32.915-103.137 37.801 10.906 1.42 22.13 1.612 33.424 1.612 30.448 0 59.952-4.845 87.03-14.618z" fill="#1d81ce"/><path d="m177.978 267.106 44.425-33.319 170.805 238.278-8.302 4.872c-11.729 6.884-24.073 12.861-36.69 17.766l-6.499 2.527z" fill="#fff"/><path d="m341.718 497.229c18.2-6.475 35.457-14.944 51.49-25.164l-24.615-34.338c-13.395 13.232-28.248 24.992-44.293 35.023z" fill="#e0e0e3"/><path d="m31.37 379.188c-7.01-12.718-12.964-26.113-17.696-39.813l-2.112-8.059 299.691-208.592 44.425 33.319-319.966 230.999z" fill="#ffce00"/><path d="m382.579 250.216c-15.713-16.41-94.094-100.753-94.094-149.704 0-55.423 45.09-100.512 100.512-100.512s100.512 45.089 100.512 100.512c0 48.918-78.382 133.287-94.095 149.704-3.497 3.654-9.337 3.655-12.835 0z" fill="#cd2900"/><path d="m388.997 134.386c-24.803 0-44.98-20.178-44.98-44.98s20.178-44.98 44.98-44.98c24.803 0 44.98 20.178 44.98 44.98s-20.177 44.98-44.98 44.98z" fill="#891d00"/><path d="m144.659 186.586c29.088 0 52.755-23.666 52.755-52.755 0-4.6-3.729-8.33-8.33-8.33h-33.319c-4.6 0-8.33 3.729-8.33 8.33 0 4.6 3.729 8.33 8.33 8.33h24.018c-3.769 15.901-18.088 27.766-35.125 27.766-19.902 0-36.095-16.193-36.095-36.095s16.193-36.095 36.095-36.095c8.8 0 17.275 3.202 23.865 9.015 3.452 3.044 8.715 2.713 11.757-.736 3.043-3.45 2.713-8.714-.736-11.757-9.636-8.5-22.025-13.181-34.886-13.181-29.088 0-52.755 23.666-52.755 52.755s23.667 52.753 52.756 52.753z" fill="#fff"/></svg>